PathFileType	4	(X/Y/Z)	s03c0401.trc
DataRate	CameraRate	NumFrames	NumMarkers	Units	OrigDataRate	OrigDataStartFrame	OrigNumFrames
200	200	4	52	mm	200	250	2000
Frame#	Time	racr			lacr			c7			jug			rlel			rdr			llel			ldr			s2			lic			ric			lasi			rasi			rpsi			lpsi			rgt			lgt			rth1			rth2			rth3			rth4			rlfc			rmfc			rsh1			rsh2			rsh3			rsh4			rlmal			rmmal			rcal			rtoe			rmt5			rmt1			lth1			lth2			lth4			lth3			llfc			lmfc			lsh1			lsh2			lsh3			lsh4			llmal			lmmal			lcal			ltoe			lmt1			lmt5			SBIKE			LBIKE			RBIKE			
		X1	Y1	Z1	X2	Y2	Z2	X3	Y3	Z3	X4	Y4	Z4	X5	Y5	Z5	X6	Y6	Z6	X7	Y7	Z7	X8	Y8	Z8	X9	Y9	Z9	X10	Y10	Z10	X11	Y11	Z11	X12	Y12	Z12	X13	Y13	Z13	X14	Y14	Z14	X15	Y15	Z15	X16	Y16	Z16	X17	Y17	Z17	X18	Y18	Z18	X19	Y19	Z19	X20	Y20	Z20	X21	Y21	Z21	X22	Y22	Z22	X23	Y23	Z23	X24	Y24	Z24	X25	Y25	Z25	X26	Y26	Z26	X27	Y27	Z27	X28	Y28	Z28	X29	Y29	Z29	X30	Y30	Z30	X31	Y31	Z31	X32	Y32	Z32	X33	Y33	Z33	X34	Y34	Z34	X35	Y35	Z35	X36	Y36	Z36	X37	Y37	Z37	X38	Y38	Z38	X39	Y39	Z39	X40	Y40	Z40	X41	Y41	Z41	X42	Y42	Z42	X43	Y43	Z43	X44	Y44	Z44	X45	Y45	Z45	X46	Y46	Z46	X47	Y47	Z47	X48	Y48	Z48	X49	Y49	Z49	X50	Y50	Z50	X51	Y51	Z51	X52	Y52	Z52	
250	1.2500	467.600341	1451.858799	-72.780498	459.800151	1466.692189	-388.633298	379.951423	1532.336820	-228.853544	426.568117	1367.859392	-229.501136	516.101277	1181.710305	19.145695	733.483669	985.531676	-22.097465	527.190492	1203.748312	-463.492945	730.771340	976.712695	-448.473326	-109.153450	1201.670541	-247.193321	83.588567	1217.962358	-423.514725	61.183585	1236.657027	-55.220576	98.461619	1137.963168	-383.467406	83.147945	1168.835259	-98.618745	-82.378310	1253.077176	-201.704196	-72.010621	1248.729860	-284.961631	3.334623	1155.208224	-37.820859	15.492595	1101.376427	-438.902446	129.323780	1069.793715	-20.140763	218.169501	1069.856610	-17.287693	294.402661	1028.765258	-18.270990	227.769643	1103.302431	-31.017057	416.027788	968.597976	-38.328686	425.083136	956.867223	-164.208899	359.097762	813.362790	-23.298627	342.334417	727.958421	-43.616648	284.620798	661.102635	-47.577201	368.638831	719.930819	-70.610737	219.703272	546.327402	-73.305591	241.976691	561.673194	-161.897884	150.657644	503.434971	-114.920893	460.578690	490.965700	-121.708574	342.994902	477.108039	-49.871106	366.331149	491.916568	-165.124369	80.705833	956.098625	-459.082402	137.521144	890.376874	-462.843919	170.425705	906.582834	-458.649438	155.084564	803.450918	-453.500368	227.050483	692.555075	-436.517328	232.374246	682.439316	-314.125967	136.311006	543.777790	-457.024745	122.337287	462.015572	-438.117586	64.270057	392.092313	-429.232142	151.220351	452.149675	-413.646255	4.885838	278.433543	-405.629885	0.000000	0.000000	-0.000000	-63.397418	231.806437	-355.053930	244.443835	215.279542	-360.821725	151.749403	214.468885	-316.747690	123.726388	194.101220	-431.398566	-217.875886	944.399883	-234.607978	-11.917979	80.789215	-435.488031	-12.219535	81.157503	-34.996753	
251	1.2550	467.557648	1451.860338	-72.787014	459.784193	1466.683924	-388.628384	379.928241	1532.331095	-228.868451	426.583795	1367.863599	-229.476808	516.072482	1181.707750	19.146867	733.428229	985.558018	-22.167157	527.138482	1203.729130	-463.561450	730.771370	976.794930	-448.412524	-109.177363	1201.655926	-247.205238	83.564421	1217.961071	-423.523670	61.163231	1236.633889	-55.229632	98.471398	1137.974246	-383.488159	83.127191	1168.832952	-98.633588	-82.401566	1253.050729	-201.681806	-72.043634	1248.708382	-284.960755	3.320763	1155.168573	-37.834480	15.464185	1101.359280	-438.893668	129.321566	1069.770569	-20.150910	218.159120	1069.835352	-17.290173	294.404979	1028.747352	-18.282346	227.781994	1103.289740	-31.016517	416.047272	968.583378	-38.354975	425.067876	956.863462	-164.197572	359.098039	813.371418	-23.312160	342.647760	727.944657	-43.297841	284.610997	661.118164	-47.557147	368.628193	719.937472	-70.618907	219.712160	546.334322	-73.310821	241.968602	561.673491	-161.899106	150.663078	503.429510	-114.920766	460.567145	490.976773	-121.709256	342.978677	477.110717	-49.867982	366.325242	491.923036	-165.137095	80.688291	956.072879	-459.072576	137.503143	890.341013	-462.831907	170.392814	906.562368	-458.651990	155.063509	803.416731	-453.492997	227.033372	692.542434	-436.501653	232.349088	682.410697	-314.133354	136.314679	543.757909	-456.997606	122.329081	462.017402	-438.121885	64.272672	392.081653	-429.216868	151.210290	452.126516	-413.604319	4.888861	278.420100	-405.615421	0.000000	0.000000	-0.000000	-63.402688	231.783444	-355.039101	244.439089	215.298805	-360.820766	151.754838	214.462693	-316.734929	123.723659	194.109795	-431.400698	-217.869243	944.386816	-234.608643	-11.907038	80.777624	-435.481134	-12.242416	81.163719	-35.001219	
252	1.2600	467.571259	1451.819960	-72.816410	459.806472	1466.684618	-388.617059	379.889554	1532.304403	-228.862807	426.598486	1367.893801	-229.453452	516.016428	1181.696512	19.195517	733.316709	985.649223	-22.313655	527.051129	1203.742448	-463.675808	730.751961	976.922222	-448.308606	-109.197333	1201.627359	-247.089680	83.536329	1217.950221	-423.505267	61.143300	1236.614880	-55.241521	98.409848	1137.975205	-383.457400	83.105577	1168.841384	-98.648850	-82.447109	1253.025352	-201.663443	-72.087035	1248.687629	-284.944332	3.314279	1155.129509	-37.834775	15.437961	1101.335293	-438.885387	129.293368	1069.728285	-20.157309	218.156388	1069.802690	-17.316082	294.386493	1028.733858	-18.274776	227.761469	1103.262364	-31.020853	416.019070	968.594112	-38.364340	425.056790	956.873666	-164.220924	359.095042	813.370270	-23.335385	342.655576	727.959927	-43.304605	284.600786	661.120527	-47.592630	368.634818	719.937156	-70.636933	219.701199	546.355037	-73.315816	241.961584	561.679098	-161.900182	150.649823	503.433164	-114.926017	460.564955	490.980708	-121.717855	342.969555	477.111950	-49.874611	366.319378	491.928260	-165.148806	80.652092	956.048995	-459.066940	137.488624	890.313862	-462.813993	170.370356	906.530149	-458.634420	155.037173	803.389355	-453.489207	227.028405	692.530909	-436.491918	232.150062	682.496631	-314.332667	136.307581	543.755058	-457.003502	122.329674	461.996445	-438.120761	64.266376	392.068694	-429.211194	151.205773	452.131056	-413.625992	4.884193	278.405894	-405.609210	0.000000	0.000000	-0.000000	-63.390593	231.766378	-355.033765	244.436022	215.283632	-360.819545	151.752794	214.459655	-316.737107	123.723628	194.109977	-431.400791	-217.856290	944.343807	-234.556140	-11.902964	80.762948	-435.483858	-12.221545	81.163128	-34.995397	
253	1.2650	467.567342	1451.752821	-72.882684	459.901609	1466.722166	-388.557508	379.836956	1532.298111	-228.838722	426.664719	1367.947304	-229.398819	515.931566	1181.703999	19.317063	733.188892	985.730273	-22.496486	526.917224	1203.778310	-463.861677	730.718145	977.045951	-448.100086	-109.208337	1201.596560	-247.078181	83.504339	1217.925771	-423.477036	61.112854	1236.597470	-55.251877	98.363527	1137.986390	-383.380650	83.086625	1168.869440	-98.701390	-82.469388	1252.990522	-201.652312	-72.126976	1248.663487	-284.940567	3.281556	1155.087031	-37.834336	15.396645	1101.304835	-438.893856	129.265887	1069.714603	-20.175307	218.133802	1069.789919	-17.326384	294.383332	1028.711082	-18.300934	227.725874	1103.240665	-31.016830	416.005828	968.604404	-38.400550	425.041925	956.881103	-164.255314	359.086251	813.378404	-23.333254	342.620905	727.983001	-43.320781	284.593402	661.122037	-47.594782	368.605640	719.953084	-70.662182	219.683106	546.360854	-73.313213	241.957553	561.683640	-161.904969	150.646352	503.440717	-114.919769	460.595709	490.906420	-121.934298	342.954107	477.160305	-49.868488	366.301195	491.911286	-164.888641	80.622025	956.032372	-459.061531	137.463451	890.300270	-462.803209	170.343206	906.506936	-458.628758	155.012453	803.365479	-453.474171	227.023665	692.519317	-436.491403	232.134295	682.473498	-314.332804	136.301492	543.733972	-456.990843	122.325163	462.000044	-438.116912	64.269258	392.063178	-429.210185	151.216618	452.125661	-413.625213	4.890239	278.401894	-405.613657	0.000000	0.000000	-0.000000	-63.401791	231.763793	-355.040891	244.441876	215.278218	-360.810824	151.734524	214.437948	-316.703159	123.732577	194.099289	-431.383099	-217.863329	944.334831	-234.548426	-11.920534	80.772701	-435.468983	-12.228640	81.164564	-34.996206	
